<svg width="485" height="812" viewBox="0 0 485 812" fill="none" xmlns="http://www.w3.org/2000/svg">
<g clip-path="url(#clip0_1279_107865)">
<rect width="485" height="812" fill="#6B3ABF"/>
<path d="M0 0H485V406V812H0V0Z" fill="url(#paint0_linear_1279_107865)"/>
<g clip-path="url(#clip1_1279_107865)">
<path d="M165.89 295.999H162.432L170.885 275.871H174.013L182.465 295.999H178.897L176.949 291.169H167.868L165.89 295.999ZM172.393 280.067L169.101 288.061H175.714L172.393 280.067Z" fill="white"/>
<path d="M191.898 295.658H184.655V276.335H191.898C197.877 276.335 202.22 280.375 202.22 285.941V285.997C202.234 287.278 201.987 288.55 201.492 289.731C200.998 290.913 200.267 291.98 199.346 292.867C197.312 294.724 194.645 295.723 191.898 295.658ZM188.069 279.421V292.572H191.898C192.795 292.604 193.69 292.458 194.531 292.142C195.372 291.827 196.142 291.347 196.799 290.732C197.402 290.116 197.876 289.385 198.192 288.582C198.508 287.778 198.661 286.919 198.641 286.056V285.997C198.668 285.108 198.512 284.224 198.18 283.4C197.848 282.577 197.349 281.831 196.714 281.213C196.08 280.594 195.323 280.115 194.494 279.806C193.665 279.498 192.78 279.367 191.898 279.421H188.069Z" fill="white"/>
<path d="M202.607 276.335H206.382L212.236 291.187L218.063 276.335H221.755L213.707 295.792H210.655L202.607 276.335Z" fill="white"/>
<path d="M224.444 295.658H227.858V276.335H224.444V295.658Z" fill="white"/>
<path d="M231.352 286.051V285.996C231.328 284.674 231.571 283.36 232.065 282.134C232.559 280.908 233.295 279.795 234.228 278.862C235.161 277.928 236.272 277.194 237.494 276.703C238.717 276.212 240.025 275.974 241.341 276.003C242.751 275.947 244.158 276.186 245.471 276.704C246.785 277.222 247.977 278.008 248.973 279.013L246.781 281.525C245.343 280.038 243.377 279.184 241.313 279.15C240.446 279.161 239.59 279.347 238.796 279.697C238.002 280.047 237.286 280.554 236.691 281.188C236.096 281.821 235.633 282.568 235.331 283.385C235.028 284.201 234.892 285.071 234.931 285.941V285.996C234.89 286.872 235.025 287.747 235.328 288.569C235.63 289.392 236.095 290.145 236.693 290.783C237.291 291.421 238.01 291.933 238.809 292.286C239.608 292.639 240.469 292.828 241.341 292.84C242.391 292.835 243.428 292.612 244.388 292.186C245.348 291.759 246.21 291.138 246.92 290.361L249.114 292.567C248.133 293.686 246.918 294.573 245.556 295.165C244.193 295.757 242.718 296.039 241.235 295.99C239.929 296.015 238.632 295.775 237.422 295.284C236.211 294.793 235.111 294.062 234.188 293.134C233.266 292.206 232.539 291.1 232.051 289.883C231.564 288.666 231.326 287.363 231.352 286.051Z" fill="white"/>
<path d="M251.885 276.335H266.287V279.372H255.298V284.396H265.038V287.461H255.298V292.623H266.426V295.658H251.885V276.335Z" fill="white"/>
<path d="M296.028 276.323H295.968L295.948 276.379L289.971 293.212L284.405 276.327L284.385 276.268H283.153L283.14 276.327L277.573 293.212L271.598 276.379L271.578 276.323H269.798L269.839 276.437L276.835 295.75L276.855 295.807H278.133L278.153 295.749L283.718 279.331L289.282 295.749L289.302 295.807H290.58L290.6 295.75L297.596 276.437L297.637 276.323H296.034H296.028Z" fill="white"/>
<path d="M308.873 296C307.55 296.023 306.237 295.768 305.018 295.252C303.799 294.735 302.701 293.969 301.794 293.001C300.938 292.084 300.266 291.01 299.816 289.837C299.354 288.632 299.119 287.351 299.123 286.059V286.005C299.119 284.706 299.359 283.418 299.831 282.208C300.287 281.025 300.96 279.94 301.817 279.009C302.687 278.075 303.736 277.327 304.901 276.811C306.171 276.255 307.545 275.977 308.93 275.995C310.308 275.978 311.674 276.256 312.937 276.811C314.098 277.326 315.147 278.068 316.02 278.994C316.874 279.912 317.544 280.986 317.993 282.158C318.453 283.357 318.688 284.631 318.687 285.916C318.696 285.932 318.701 285.95 318.701 285.969C318.701 285.988 318.696 286.006 318.687 286.023C318.687 287.314 318.447 288.593 317.98 289.795C317.522 290.974 316.848 292.057 315.992 292.986C315.118 293.922 314.064 294.67 312.894 295.184C311.626 295.738 310.255 296.016 308.873 296ZM308.873 277.452C307.785 277.439 306.707 277.652 305.706 278.079C304.705 278.506 303.803 279.137 303.058 279.932C302.332 280.715 301.763 281.632 301.38 282.631C300.977 283.687 300.775 284.811 300.782 285.942V285.997C300.775 287.135 300.982 288.263 301.394 289.323C301.781 290.326 302.354 291.246 303.083 292.035C303.813 292.81 304.688 293.432 305.659 293.863C306.689 294.318 307.804 294.547 308.929 294.534C310.048 294.546 311.158 294.32 312.185 293.872C313.151 293.447 314.023 292.832 314.749 292.063C315.475 291.279 316.044 290.363 316.425 289.364C316.825 288.309 317.027 287.188 317.019 286.059V286.005C317.026 284.868 316.818 283.74 316.406 282.68C316.019 281.677 315.445 280.756 314.716 279.967C313.987 279.19 313.113 278.565 312.143 278.13C311.113 277.673 309.998 277.442 308.873 277.452Z" fill="white"/>
<path d="M324.163 295.672H322.56V276.323H330.741C331.829 276.305 332.911 276.478 333.939 276.835C334.793 277.132 335.574 277.611 336.228 278.239C336.694 278.705 337.066 279.259 337.32 279.869C337.582 280.5 337.715 281.177 337.711 281.86V281.914C337.725 282.667 337.577 283.415 337.277 284.105C336.996 284.736 336.586 285.301 336.075 285.764C335.539 286.241 334.925 286.622 334.261 286.89C333.579 287.165 332.867 287.356 332.14 287.46L338.417 295.536L338.522 295.67H338.35H336.483L336.457 295.636L330.342 287.729H324.163V295.674V295.672ZM324.163 277.781V286.267H330.573C331.323 286.274 332.071 286.173 332.793 285.969C333.422 285.794 334.015 285.506 334.541 285.117C335.017 284.76 335.409 284.302 335.688 283.775C335.975 283.214 336.12 282.59 336.109 281.958V281.905C336.131 281.325 336.014 280.749 335.768 280.224C335.522 279.7 335.154 279.242 334.696 278.89C333.51 278.081 332.09 277.691 330.66 277.78L324.163 277.781Z" fill="white"/>
<path d="M349.722 284.878L358.094 276.467L358.238 276.322H356.041L356.016 276.348L343.88 288.802V276.322H342.277V295.67H343.88V290.743L348.581 286.015L356.453 295.645L356.478 295.676H358.571L358.457 295.542L349.722 284.878Z" fill="white"/>
<path d="M372.712 287.15C371.259 286.122 369.586 285.454 367.827 285.2C366.877 285.014 365.943 284.759 365.03 284.436C364.423 284.227 363.853 283.922 363.341 283.533C362.974 283.251 362.689 282.876 362.513 282.446C362.351 282.013 362.27 281.555 362.273 281.092V281.037C362.271 280.565 362.382 280.099 362.594 279.678C362.818 279.241 363.135 278.858 363.521 278.556C363.961 278.217 364.457 277.959 364.986 277.793C365.605 277.597 366.251 277.501 366.9 277.509C367.907 277.503 368.908 277.668 369.86 277.998C370.866 278.376 371.795 278.936 372.601 279.65L372.668 279.706L372.723 279.638L373.632 278.515L373.686 278.449L373.619 278.395C372.715 277.65 371.699 277.054 370.609 276.629C369.435 276.219 368.198 276.022 366.956 276.048C366.106 276.04 365.259 276.171 364.451 276.436C363.729 276.674 363.057 277.043 362.468 277.524C361.923 277.97 361.475 278.523 361.152 279.149C360.832 279.776 360.667 280.47 360.67 281.174V281.229C360.66 281.907 360.786 282.579 361.04 283.207C361.298 283.804 361.698 284.328 362.206 284.733C362.825 285.217 363.516 285.601 364.253 285.871C365.225 286.232 366.224 286.513 367.241 286.711C368.154 286.879 369.052 287.12 369.926 287.433C370.515 287.64 371.069 287.936 371.569 288.31C371.934 288.583 372.22 288.949 372.397 289.37C372.556 289.799 372.633 290.255 372.626 290.712V290.767C372.629 291.28 372.509 291.786 372.277 292.243C372.041 292.701 371.71 293.103 371.307 293.421C370.854 293.772 370.341 294.037 369.793 294.201C369.159 294.395 368.499 294.49 367.836 294.484C367.177 294.489 366.518 294.43 365.869 294.308C365.281 294.194 364.705 294.022 364.15 293.793C363.59 293.559 363.056 293.268 362.554 292.925C362 292.543 361.474 292.12 360.981 291.66L360.918 291.601L360.86 291.666L359.925 292.74L359.869 292.797L359.931 292.854C361.001 293.822 362.224 294.605 363.549 295.17C364.888 295.701 366.316 295.964 367.755 295.944C368.637 295.953 369.515 295.822 370.356 295.556C371.096 295.324 371.787 294.956 372.394 294.472C372.958 294.014 373.417 293.439 373.739 292.787C374.069 292.114 374.237 291.374 374.231 290.625V290.57C374.255 289.921 374.131 289.275 373.867 288.682C373.604 288.089 373.209 287.565 372.712 287.15Z" fill="white"/>
<path d="M126.343 260L101 295.665H107.499L126.344 269.259L136.578 283.602L139.848 279.002L126.343 260Z" fill="white"/>
<path d="M151.683 295.658L144.538 285.604L141.273 290.179L145.185 295.658H151.683Z" fill="white"/>
<path d="M147.823 281.003H141.278L134.14 291.045L126.339 280.074L118.515 291.091L114.642 285.65L111.382 290.224L115.264 295.664H121.828L126.339 289.333L130.855 295.657H137.424L137.392 295.612L147.823 281.003Z" fill="white"/>
<path d="M104.804 281.01L108.117 285.65L111.414 281.01H104.804Z" fill="white"/>
<path d="M375.994 274.962C375.992 274.429 376.13 273.905 376.395 273.443C376.653 272.981 377.032 272.599 377.491 272.338C377.951 272.072 378.473 271.933 379.004 271.936C379.535 271.933 380.057 272.072 380.517 272.338C380.976 272.599 381.356 272.981 381.614 273.443C381.878 273.905 382.016 274.429 382.014 274.962C382.018 275.487 381.885 276.005 381.63 276.464C381.374 276.928 380.999 277.313 380.544 277.581C380.081 277.86 379.55 278.005 379.01 278.001C378.469 278.005 377.938 277.86 377.475 277.581C377.02 277.313 376.645 276.928 376.389 276.464C376.13 276.006 375.994 275.488 375.994 274.962ZM376.353 274.962C376.351 275.435 376.473 275.901 376.707 276.311C376.936 276.721 377.271 277.06 377.677 277.294C378.078 277.53 378.535 277.654 379 277.652C379.466 277.654 379.923 277.53 380.325 277.294C380.731 277.061 381.065 276.72 381.292 276.309C381.522 275.9 381.643 275.437 381.642 274.967C381.644 274.502 381.526 274.044 381.299 273.638C381.073 273.231 380.741 272.892 380.34 272.658C379.936 272.417 379.474 272.29 379.004 272.293C378.538 272.29 378.079 272.414 377.677 272.651C377.273 272.883 376.939 273.221 376.71 273.628C376.476 274.033 376.353 274.493 376.353 274.962ZM378.314 275.216V276.615H377.898V273.216H378.991C379.328 273.194 379.663 273.282 379.947 273.465C380.06 273.554 380.15 273.67 380.208 273.801C380.266 273.933 380.291 274.077 380.281 274.221C380.278 274.4 380.219 274.574 380.112 274.718C380.005 274.861 379.855 274.967 379.684 275.019C379.861 275.069 380.013 275.186 380.107 275.345C380.19 275.509 380.231 275.691 380.226 275.874C380.224 276.023 380.23 276.171 380.244 276.32C380.252 276.399 380.27 276.476 380.298 276.55V276.615H379.867C379.812 276.373 379.791 276.125 379.805 275.878C379.815 275.787 379.805 275.694 379.778 275.607C379.751 275.519 379.706 275.438 379.647 275.368C379.493 275.254 379.303 275.2 379.112 275.218L378.314 275.216ZM378.314 274.847H379.08C379.282 274.856 379.481 274.796 379.645 274.677C379.716 274.626 379.773 274.558 379.812 274.48C379.85 274.402 379.869 274.315 379.867 274.228C379.876 274.137 379.864 274.045 379.832 273.96C379.8 273.874 379.749 273.797 379.683 273.735C379.493 273.618 379.272 273.564 379.05 273.579H378.314V274.847Z" fill="white"/>
</g>
<path d="M173.032 339.12C171.784 339.12 170.624 338.912 169.552 338.496C168.496 338.064 167.576 337.464 166.792 336.696C166.008 335.928 165.4 335.032 164.968 334.008C164.536 332.968 164.32 331.832 164.32 330.6C164.32 329.368 164.536 328.24 164.968 327.216C165.4 326.176 166.008 325.272 166.792 324.504C167.592 323.736 168.52 323.144 169.576 322.728C170.632 322.296 171.784 322.08 173.032 322.08C174.216 322.08 175.32 322.272 176.344 322.656C177.384 323.04 178.272 323.624 179.008 324.408L178.24 325.2C177.52 324.496 176.72 323.992 175.84 323.688C174.976 323.368 174.056 323.208 173.08 323.208C172.008 323.208 171.008 323.392 170.08 323.76C169.168 324.128 168.368 324.648 167.68 325.32C167.008 325.992 166.48 326.776 166.096 327.672C165.728 328.568 165.544 329.544 165.544 330.6C165.544 331.656 165.728 332.632 166.096 333.528C166.48 334.424 167.008 335.208 167.68 335.88C168.368 336.552 169.168 337.072 170.08 337.44C171.008 337.808 172.008 337.992 173.08 337.992C174.056 337.992 174.976 337.84 175.84 337.536C176.72 337.216 177.52 336.696 178.24 335.976L179.008 336.768C178.272 337.552 177.384 338.144 176.344 338.544C175.32 338.928 174.216 339.12 173.032 339.12ZM182.924 339V321.192H184.124V339H182.924ZM189.381 339V326.472H190.581V339H189.381ZM189.981 323.424C189.709 323.424 189.477 323.328 189.285 323.136C189.093 322.944 188.997 322.72 188.997 322.464C188.997 322.192 189.093 321.96 189.285 321.768C189.477 321.576 189.709 321.48 189.981 321.48C190.269 321.48 190.501 321.576 190.677 321.768C190.869 321.944 190.965 322.168 190.965 322.44C190.965 322.712 190.869 322.944 190.677 323.136C190.501 323.328 190.269 323.424 189.981 323.424ZM200.927 339.096C199.663 339.096 198.543 338.824 197.567 338.28C196.607 337.736 195.847 336.984 195.287 336.024C194.743 335.064 194.471 333.968 194.471 332.736C194.471 331.488 194.727 330.392 195.239 329.448C195.767 328.488 196.487 327.736 197.399 327.192C198.311 326.648 199.335 326.376 200.471 326.376C201.607 326.376 202.623 326.64 203.519 327.168C204.431 327.696 205.143 328.44 205.655 329.4C206.183 330.344 206.447 331.44 206.447 332.688C206.447 332.736 206.439 332.792 206.423 332.856C206.423 332.904 206.423 332.96 206.423 333.024H195.359V332.088H205.775L205.295 332.544C205.311 331.568 205.103 330.696 204.671 329.928C204.255 329.144 203.687 328.536 202.967 328.104C202.247 327.656 201.415 327.432 200.471 327.432C199.543 327.432 198.711 327.656 197.975 328.104C197.255 328.536 196.687 329.144 196.271 329.928C195.855 330.696 195.647 331.576 195.647 332.568V332.784C195.647 333.808 195.871 334.72 196.319 335.52C196.783 336.304 197.415 336.92 198.215 337.368C199.015 337.8 199.927 338.016 200.951 338.016C201.751 338.016 202.495 337.872 203.183 337.584C203.887 337.296 204.479 336.856 204.959 336.264L205.655 337.056C205.111 337.728 204.423 338.24 203.591 338.592C202.775 338.928 201.887 339.096 200.927 339.096ZM216.48 326.376C217.504 326.376 218.392 326.576 219.144 326.976C219.912 327.36 220.504 327.952 220.92 328.752C221.352 329.536 221.568 330.512 221.568 331.68V339H220.368V331.776C220.368 330.368 220.008 329.296 219.288 328.56C218.584 327.824 217.592 327.456 216.312 327.456C215.336 327.456 214.488 327.656 213.768 328.056C213.048 328.456 212.496 329.016 212.112 329.736C211.744 330.456 211.56 331.32 211.56 332.328V339H210.36V326.472H211.512V329.952L211.344 329.568C211.728 328.576 212.36 327.8 213.24 327.24C214.12 326.664 215.2 326.376 216.48 326.376ZM230.356 339.096C229.252 339.096 228.404 338.792 227.812 338.184C227.236 337.576 226.948 336.744 226.948 335.688V323.736H228.148V335.568C228.148 336.368 228.348 336.984 228.748 337.416C229.148 337.848 229.724 338.064 230.476 338.064C231.26 338.064 231.908 337.832 232.42 337.368L232.924 338.208C232.604 338.512 232.212 338.736 231.748 338.88C231.3 339.024 230.836 339.096 230.356 339.096ZM224.644 327.504V326.472H232.132V327.504H224.644ZM240.411 339L248.139 322.2H249.363L257.091 339H255.771L248.475 322.968H249.003L241.731 339H240.411ZM243.243 334.272L243.651 333.24H253.707L254.115 334.272H243.243ZM264.807 339.096C263.591 339.096 262.503 338.824 261.543 338.28C260.599 337.736 259.847 336.984 259.287 336.024C258.743 335.064 258.471 333.968 258.471 332.736C258.471 331.488 258.743 330.384 259.287 329.424C259.847 328.464 260.599 327.72 261.543 327.192C262.503 326.648 263.591 326.376 264.807 326.376C265.815 326.376 266.727 326.568 267.543 326.952C268.375 327.336 269.047 327.912 269.559 328.68L268.671 329.328C268.223 328.688 267.663 328.216 266.991 327.912C266.319 327.608 265.591 327.456 264.807 327.456C263.831 327.456 262.951 327.68 262.167 328.128C261.399 328.56 260.791 329.176 260.343 329.976C259.911 330.76 259.695 331.68 259.695 332.736C259.695 333.792 259.911 334.72 260.343 335.52C260.791 336.304 261.399 336.92 262.167 337.368C262.951 337.8 263.831 338.016 264.807 338.016C265.591 338.016 266.319 337.864 266.991 337.56C267.663 337.256 268.223 336.784 268.671 336.144L269.559 336.792C269.047 337.56 268.375 338.136 267.543 338.52C266.727 338.904 265.815 339.096 264.807 339.096ZM278.109 339.096C276.893 339.096 275.805 338.824 274.845 338.28C273.901 337.736 273.149 336.984 272.589 336.024C272.045 335.064 271.773 333.968 271.773 332.736C271.773 331.488 272.045 330.384 272.589 329.424C273.149 328.464 273.901 327.72 274.845 327.192C275.805 326.648 276.893 326.376 278.109 326.376C279.117 326.376 280.029 326.568 280.845 326.952C281.677 327.336 282.349 327.912 282.861 328.68L281.973 329.328C281.525 328.688 280.965 328.216 280.293 327.912C279.621 327.608 278.893 327.456 278.109 327.456C277.133 327.456 276.253 327.68 275.469 328.128C274.701 328.56 274.093 329.176 273.645 329.976C273.213 330.76 272.997 331.68 272.997 332.736C272.997 333.792 273.213 334.72 273.645 335.52C274.093 336.304 274.701 336.92 275.469 337.368C276.253 337.8 277.133 338.016 278.109 338.016C278.893 338.016 279.621 337.864 280.293 337.56C280.965 337.256 281.525 336.784 281.973 336.144L282.861 336.792C282.349 337.56 281.677 338.136 280.845 338.52C280.029 338.904 279.117 339.096 278.109 339.096ZM291.53 339.096C290.266 339.096 289.146 338.824 288.17 338.28C287.21 337.736 286.45 336.984 285.89 336.024C285.346 335.064 285.074 333.968 285.074 332.736C285.074 331.488 285.33 330.392 285.842 329.448C286.37 328.488 287.09 327.736 288.002 327.192C288.914 326.648 289.938 326.376 291.074 326.376C292.21 326.376 293.226 326.64 294.122 327.168C295.034 327.696 295.746 328.44 296.258 329.4C296.786 330.344 297.05 331.44 297.05 332.688C297.05 332.736 297.042 332.792 297.026 332.856C297.026 332.904 297.026 332.96 297.026 333.024H285.962V332.088H296.378L295.898 332.544C295.914 331.568 295.706 330.696 295.274 329.928C294.858 329.144 294.29 328.536 293.57 328.104C292.85 327.656 292.018 327.432 291.074 327.432C290.146 327.432 289.314 327.656 288.578 328.104C287.858 328.536 287.29 329.144 286.874 329.928C286.458 330.696 286.25 331.576 286.25 332.568V332.784C286.25 333.808 286.474 334.72 286.922 335.52C287.386 336.304 288.018 336.92 288.818 337.368C289.618 337.8 290.53 338.016 291.554 338.016C292.354 338.016 293.098 337.872 293.786 337.584C294.49 337.296 295.082 336.856 295.562 336.264L296.258 337.056C295.714 337.728 295.026 338.24 294.194 338.592C293.378 338.928 292.49 339.096 291.53 339.096ZM304.131 339.096C303.091 339.096 302.115 338.944 301.203 338.64C300.307 338.336 299.611 337.952 299.115 337.488L299.667 336.528C300.147 336.944 300.787 337.304 301.587 337.608C302.387 337.896 303.251 338.04 304.179 338.04C305.491 338.04 306.435 337.824 307.011 337.392C307.587 336.96 307.875 336.392 307.875 335.688C307.875 335.176 307.723 334.776 307.419 334.488C307.131 334.184 306.739 333.952 306.243 333.792C305.747 333.632 305.203 333.504 304.611 333.408C304.019 333.296 303.427 333.176 302.835 333.048C302.243 332.92 301.699 332.736 301.203 332.496C300.707 332.256 300.307 331.928 300.003 331.512C299.715 331.08 299.571 330.512 299.571 329.808C299.571 329.168 299.747 328.592 300.099 328.08C300.451 327.568 300.979 327.16 301.683 326.856C302.387 326.536 303.267 326.376 304.323 326.376C305.107 326.376 305.891 326.488 306.675 326.712C307.475 326.936 308.123 327.232 308.619 327.6L308.067 328.56C307.539 328.16 306.947 327.872 306.291 327.696C305.635 327.52 304.971 327.432 304.299 327.432C303.083 327.432 302.187 327.656 301.611 328.104C301.051 328.552 300.771 329.112 300.771 329.784C300.771 330.312 300.915 330.736 301.203 331.056C301.507 331.36 301.907 331.6 302.403 331.776C302.899 331.936 303.443 332.072 304.035 332.184C304.627 332.28 305.219 332.392 305.811 332.52C306.403 332.648 306.947 332.832 307.443 333.072C307.939 333.296 308.331 333.616 308.619 334.032C308.923 334.432 309.075 334.976 309.075 335.664C309.075 336.352 308.883 336.952 308.499 337.464C308.131 337.976 307.579 338.376 306.843 338.664C306.107 338.952 305.203 339.096 304.131 339.096ZM315.792 339.096C314.752 339.096 313.776 338.944 312.864 338.64C311.968 338.336 311.272 337.952 310.776 337.488L311.328 336.528C311.808 336.944 312.448 337.304 313.248 337.608C314.048 337.896 314.912 338.04 315.84 338.04C317.152 338.04 318.096 337.824 318.672 337.392C319.248 336.96 319.536 336.392 319.536 335.688C319.536 335.176 319.384 334.776 319.08 334.488C318.792 334.184 318.4 333.952 317.904 333.792C317.408 333.632 316.864 333.504 316.272 333.408C315.68 333.296 315.088 333.176 314.496 333.048C313.904 332.92 313.36 332.736 312.864 332.496C312.368 332.256 311.968 331.928 311.664 331.512C311.376 331.08 311.232 330.512 311.232 329.808C311.232 329.168 311.408 328.592 311.76 328.08C312.112 327.568 312.64 327.16 313.344 326.856C314.048 326.536 314.928 326.376 315.984 326.376C316.768 326.376 317.552 326.488 318.336 326.712C319.136 326.936 319.784 327.232 320.28 327.6L319.728 328.56C319.2 328.16 318.608 327.872 317.952 327.696C317.296 327.52 316.632 327.432 315.96 327.432C314.744 327.432 313.848 327.656 313.272 328.104C312.712 328.552 312.432 329.112 312.432 329.784C312.432 330.312 312.576 330.736 312.864 331.056C313.168 331.36 313.568 331.6 314.064 331.776C314.56 331.936 315.104 332.072 315.696 332.184C316.288 332.28 316.88 332.392 317.472 332.52C318.064 332.648 318.608 332.832 319.104 333.072C319.6 333.296 319.992 333.616 320.28 334.032C320.584 334.432 320.736 334.976 320.736 335.664C320.736 336.352 320.544 336.952 320.16 337.464C319.792 337.976 319.24 338.376 318.504 338.664C317.768 338.952 316.864 339.096 315.792 339.096Z" fill="white"/>
</g>
<defs>
<linearGradient id="paint0_linear_1279_107865" x1="186.034" y1="0" x2="186.034" y2="812" gradientUnits="userSpaceOnUse">
<stop stop-color="#2C0F5C" stop-opacity="0"/>
<stop offset="1" stop-color="#2C0F5C"/>
</linearGradient>
<clipPath id="clip0_1279_107865">
<rect width="485" height="812" fill="white"/>
</clipPath>
<clipPath id="clip1_1279_107865">
<rect width="283" height="36" fill="white" transform="translate(101 260)"/>
</clipPath>
</defs>
</svg>
